<svg xmlns="http://www.w3.org/2000/svg" xmlns:xlink="http://www.w3.org/1999/xlink" id="_레이어_1" version="1.1" viewBox="0 0 472.9 220.4"><defs><linearGradient id="_무제_그라디언트_4" x1="337.2" x2="355.2" y1="52.8" y2="52.8" gradientUnits="userSpaceOnUse"><stop offset="0" stop-color="#49a194"/><stop offset="1" stop-color="#50a96c"/></linearGradient><linearGradient xlink:href="#_무제_그라디언트_4" id="_무제_그라디언트_4-2" x1="288.9" x2="306.8" y1="42.6" y2="42.6"/><linearGradient xlink:href="#_무제_그라디언트_4" id="_무제_그라디언트_4-3" x1="197.9" x2="215.8" y1="51.3" y2="51.3"/><linearGradient xlink:href="#_무제_그라디언트_4" id="_무제_그라디언트_4-4" x1="87.2" x2="104.7" y1="46.6" y2="46.6"/><linearGradient xlink:href="#_무제_그라디언트_4" id="_무제_그라디언트_4-5" x1="109.5" x2="127" y1="53.6" y2="53.6"/><linearGradient xlink:href="#_무제_그라디언트_4" id="_무제_그라디언트_4-6" x1="85" x2="102.5" y1="80.2" y2="80.2"/><linearGradient xlink:href="#_무제_그라디언트_4" id="_무제_그라디언트_4-7" x1="143.2" x2="160.7" y1="63.4" y2="63.4"/><linearGradient xlink:href="#_무제_그라디언트_4" id="_무제_그라디언트_4-8" x1="-492.3" x2="-474.8" y1="599.2" y2="599.2" gradientTransform="matrix(1 0 0 -1 539 773.5)"/><linearGradient xlink:href="#_무제_그라디언트_4" id="_무제_그라디언트_4-9" x1="-467.7" x2="-450.2" y1="625.8" y2="625.8" gradientTransform="matrix(1 0 0 -1 539 773.5)"/><linearGradient xlink:href="#_무제_그라디언트_4" id="_무제_그라디언트_4-10" x1="-490.1" x2="-472.6" y1="632.8" y2="632.8" gradientTransform="matrix(1 0 0 -1 539 773.5)"/><linearGradient xlink:href="#_무제_그라디언트_4" id="_무제_그라디언트_4-11" x1="-434.1" x2="-416.6" y1="616" y2="616" gradientTransform="matrix(1 0 0 -1 539 773.5)"/><linearGradient xlink:href="#_무제_그라디언트_4" id="_무제_그라디언트_4-12" x1="376.1" x2="393.5" y1="146" y2="146"/><linearGradient xlink:href="#_무제_그라디언트_4" id="_무제_그라디언트_4-13" x1="328.6" x2="346" y1="146" y2="146"/><style>.cls-1{fill:#5e4e44;stroke-width:0}</style></defs><path d="M342.1 58.4c0-1.1.9-1.9 1.9-1.9h4c1.1 0 1.9.9 1.9 1.9v25.5c0 1.1-.9 1.9-1.9 1.9h-4c-1.1 0-1.9-.9-1.9-1.9zm-98.9 28.3v-7.2q0-.3.3-.3h9.9c.8 0 1.6-1 1.6-1.8v-3.6c0-.8-1-1.6-1.6-1.6h-26.9c-1 0-1.8.6-1.8 1.6v3.6c0 1 .8 1.8 1.8 1.8h9.5c.2 0 .3 0 .3.2v7.3c0 1 1.2 1.7 1.9 1.7h3.2c.9 0 1.8-.9 1.8-1.8Zm35.7 0v-7.2q0-.3.3-.3h9.9c.8 0 1.6-1 1.6-1.8v-3.6c0-.8-1-1.6-1.6-1.6h-24.5c-1 0-1.8.6-1.8 1.6v3.6c0 1 .8 1.8 1.8 1.8h7.2c.2 0 .3 0 .3.3v7.3c0 1 1.2 1.7 1.9 1.7h3.2c.9 0 1.8-.9 1.8-1.8ZM217.1 70h-6c-.2 0-.4 0-.4-.2V58.4c0-.8-1-1.6-1.7-1.6h-4c-.8 0-1.6 1-1.6 1.6v25.5c0 1 .7 1.8 1.7 1.8h3.9c1 0 1.8-.8 1.8-1.8v-6.7s0-.2.2-.2h6.2c1 0 1.7-1.1 1.7-1.9v-3.4c0-.9-.9-1.8-1.8-1.8Zm-20.9 11.9h-17.1c-.5 0-1.7-.7-1.7-1.9V58.2c0-.7.9-1.7 1.8-1.7h4c.8 0 1.8.9 1.8 1.7v15.1c0 .3 0 .4.4.4h10.7c1 0 1.9.9 1.9 1.9v4.3c0 .7-.7 1.9-1.8 1.9Zm55.9-15.5c0 1-.8 1.8-1.8 1.8h-20.9c-1 0-1.8-.8-1.8-1.8V49.1c0-1 .8-1.8 1.8-1.8h20.9c1 0 1.8.8 1.8 1.8zm-8.4-4.9c1.1 0 2-.9 2-2v-3.8c0-1.1-.9-2-2-2h-7.6c-1.1 0-2 .9-2 2v3.8c0 1.1.9 2 2 2zm31.9-15.1c3.1 0 5.8 1.1 8 3.2 2.2 2.2 3.3 4.8 3.3 7.9s-1.1 5.8-3.3 8-4.9 3.3-8 3.3-5.8-1.1-7.9-3.3c-2.2-2.2-3.2-4.9-3.2-8s1.1-5.8 3.2-7.9c2.2-2.2 4.8-3.2 7.9-3.2m0 15.8c1.2 0 2.3-.5 3.2-1.4s1.4-2 1.4-3.2-.5-2.3-1.4-3.1-2-1.3-3.2-1.3-2.2.4-3.1 1.3c-.9.8-1.3 1.9-1.3 3.1s.4 2.2 1.3 3.2c.9.9 1.9 1.4 3.1 1.4m48.7 5.4c1 0 1.8-.8 1.8-1.8 0-1.1-.8-1.9-1.8-1.9h-11.8c-1 0-1.8-.8-1.8-1.8v-3.6c0-1 .8-1.8 1.8-1.8h19.1c1 0 1.8.8 1.8 1.8v21.9c0 1-.8 1.8-1.8 1.8H328c-1 0-1.8-.8-1.8-1.8v-4c0-1-.8-1.8-1.8-1.8h-11.2c-1 0-1.8-.8-1.8-1.8v-3.2c0-1 .8-1.8 1.8-1.8h11.2Z" class="cls-1"/><path d="M346.2 61.8c-4.9 0-9-4-9-9s4-9 9-9 9 4 9 9-4 9-9 9m0-11.6c-1.5 0-2.6 1.2-2.6 2.6 0 1.5 1.2 2.6 2.6 2.6 1.5 0 2.6-1.2 2.6-2.6 0-1.5-1.2-2.6-2.6-2.6" style="stroke-width:0;fill:url(#_무제_그라디언트_4)"/><path d="M293.8 48.2c0-1.1.9-1.9 1.9-1.9h4.1c1 0 1.9.9 1.9 1.9v36.4c0 1-.9 1.9-1.9 1.9h-4.1c-1.1 0-1.9-.9-1.9-1.9z" class="cls-1"/><path d="M297.9 51.6c-4.9 0-9-4-9-9s4-9 9-9 9 4 9 9-4 9-9 9m0-11.6c-1.5 0-2.6 1.2-2.6 2.6 0 1.5 1.2 2.6 2.6 2.6 1.5 0 2.6-1.2 2.6-2.6 0-1.5-1.2-2.6-2.6-2.6" style="stroke-width:0;fill:url(#_무제_그라디언트_4-2)"/><path d="M206.8 60.3c-4.9 0-9-4-9-9s4-9 9-9 9 4 9 9-4 9-9 9m0-11.6c-1.5 0-2.6 1.2-2.6 2.6 0 1.5 1.2 2.6 2.6 2.6 1.5 0 2.6-1.2 2.6-2.6 0-1.5-1.2-2.6-2.6-2.6" style="stroke-width:0;fill:url(#_무제_그라디언트_4-3)"/><path d="m144.8 64.6-16.3 6.9-5.6-13.2c-.5-1.2-1.9-1.7-3.1-1.2s-1.7 1.9-1.2 3.1l2.5 5.9-12.4 5.3-8.1-19c-.5-1.2-1.9-1.7-3.1-1.2s-1.7 1.9-1.2 3.1l8.1 19-5.4 2.3c-1.2.5-1.7 1.9-1.2 3.1s1.9 1.7 3.1 1.2l22.2-9.4 5.2 12.2c.5 1.2 1.9 1.7 3.1 1.2s1.7-1.9 1.2-3.1l-2.1-4.9 16.3-6.9c1.2-.5 1.7-1.9 1.2-3.1s-1.9-1.7-3.1-1.2Z" class="cls-1"/><path d="M96 55.3c-4.8 0-8.8-3.9-8.8-8.7s3.9-8.8 8.7-8.8 8.8 3.9 8.8 8.7-3.9 8.8-8.7 8.8M95.9 43c-2 0-3.6 1.6-3.6 3.6s1.7 3.6 3.6 3.6c2 0 3.6-1.6 3.6-3.6S97.9 43 95.9 43" style="stroke-width:0;fill:url(#_무제_그라디언트_4-4)"/><path d="M118.3 62.3c-4.8 0-8.8-3.9-8.8-8.7s3.9-8.8 8.7-8.8 8.8 3.9 8.8 8.7-3.9 8.8-8.7 8.8m-.1-12.3c-2 0-3.6 1.6-3.6 3.6s1.6 3.6 3.6 3.6 3.6-1.6 3.6-3.6-1.6-3.6-3.6-3.6" style="stroke-width:0;fill:url(#_무제_그라디언트_4-5)"/><path d="M102.5 80.1c0 4.8-3.9 8.8-8.7 8.8S85 85 85 80.2s3.9-8.8 8.7-8.8 8.8 3.9 8.8 8.7m-12.4.1c0 2 1.6 3.6 3.6 3.6s3.6-1.6 3.6-3.6-1.6-3.6-3.6-3.6-3.6 1.6-3.6 3.6" style="stroke-width:0;fill:url(#_무제_그라디언트_4-6)"/><path d="M143.2 63.5c0-4.8 3.9-8.8 8.7-8.8s8.8 3.9 8.8 8.7-3.9 8.8-8.7 8.8-8.8-3.9-8.8-8.7m12.4-.1c0-2-1.7-3.6-3.7-3.6s-3.6 1.6-3.6 3.6 1.6 3.6 3.6 3.6 3.6-1.6 3.6-3.6Z" style="stroke-width:0;fill:url(#_무제_그라디언트_4-7)"/><path d="m106.6 158.8-16.3 6.9-5.6-13.2c-.5-1.2-1.9-1.7-3.1-1.2s-1.7 1.9-1.2 3.1l2.5 5.9-12.4 5.3-8.1-19c-1.2-2.9-5.5-1-4.3 1.8l8.1 19-5.4 2.3c-2.9 1.2-1 5.5 1.8 4.3l22.2-9.4 5.2 12.2c1.2 2.9 5.5 1 4.3-1.8l-2.1-4.9 16.3-6.9c2.9-1.2 1-5.5-1.8-4.3Z" class="cls-1"/><path d="M64.2 174.2c0 4.8-3.9 8.8-8.7 8.8s-8.8-3.9-8.8-8.7 3.9-8.8 8.7-8.8 8.8 3.9 8.8 8.7m-12.3.1c0 2 1.6 3.6 3.6 3.6s3.6-1.6 3.6-3.6-1.6-3.6-3.6-3.6-3.6 1.6-3.6 3.6" style="stroke-width:0;fill:url(#_무제_그라디언트_4-8)"/><path d="M80.1 156.5c-4.8 0-8.8-3.9-8.8-8.7s3.9-8.8 8.7-8.8 8.8 3.9 8.8 8.7-3.9 8.8-8.7 8.8m-.1-12.4c-2 0-3.6 1.6-3.6 3.6s1.6 3.6 3.6 3.6 3.6-1.6 3.6-3.6-1.6-3.6-3.6-3.6" style="stroke-width:0;fill:url(#_무제_그라디언트_4-9)"/><path d="M57.7 149.5c-4.8 0-8.8-3.9-8.8-8.7s3.9-8.8 8.7-8.8 8.8 3.9 8.8 8.7-3.9 8.8-8.7 8.8m-.1-12.4c-2 0-3.6 1.6-3.6 3.6s1.6 3.6 3.6 3.6 3.6-1.6 3.6-3.6-1.6-3.6-3.6-3.6" style="stroke-width:0;fill:url(#_무제_그라디언트_4-10)"/><path d="M113.7 166.3c-4.8 0-8.8-3.9-8.8-8.7s3.9-8.8 8.7-8.8 8.8 3.9 8.8 8.7-3.9 8.8-8.7 8.8m-.1-12.3c-2 0-3.6 1.6-3.6 3.6s1.6 3.6 3.6 3.6 3.6-1.6 3.6-3.6-1.6-3.6-3.6-3.6" style="stroke-width:0;fill:url(#_무제_그라디언트_4-11)"/><path d="M138.6 178.4h-3.7c-.6 0-1-.2-1.4-.6q-.6-.6-.6-1.5v-23c0-.5.2-1 .6-1.4s.9-.6 1.4-.6h3c1.2 0 1.8.6 2 1.8v.9c0 .3.2.4.4.5.2 0 .5 0 .7-.4 1.2-1.3 2.3-2.2 3.4-2.8s2.4-.9 4-.9c2.6 0 4.7.8 6.2 2.3s2.2 3.7 2.2 6.4v17.3q0 .9-.6 1.5c-.4.4-.9.6-1.4.6h-3.7q-.9 0-1.5-.6t-.6-1.5v-14.5c0-2.7-1.2-4-3.7-4s-3.1.8-4.3 2.5c-.4.4-.5.9-.5 1.5v14.5q0 .9-.6 1.5t-1.5.6ZM175.2 179.2q-5.7 0-9.6-4.2c-2.6-2.8-3.8-6.2-3.8-10.3s1.3-7.5 3.8-10.3q3.75-4.2 9.6-4.2c5.85 0 6.1 1.2 7.9 3.7.2.2.3.3.5.4h.5c.1 0 .2-.2.2-.4v-1.2c.3-1.1.9-1.6 2.1-1.6h2.9q.9 0 1.5.6c.4.4.6.9.6 1.4v23q0 .9-.6 1.5t-1.5.6h-2.9c-1.1 0-1.8-.5-2-1.5v-1.2c-.2-.3-.3-.5-.6-.5s-.5.1-.7.4c-1.8 2.5-4.4 3.7-7.9 3.7Zm8.1-14.4c0-2-.7-3.7-2-5-1.3-1.4-3-2.1-4.9-2.1s-3.6.7-4.9 2.1-2 3-2 5 .7 3.7 2 5c1.3 1.4 3 2.1 5 2.1s3.6-.7 4.9-2.1 2-3 2-5ZM205.5 178.4h-3.8q-.9 0-1.5-.6t-.6-1.5v-23c0-.5.2-1 .6-1.4q.6-.6 1.5-.6h3.1q1.8 0 2.1 1.8v.9c0 .3.2.4.4.5.2 0 .5 0 .7-.4 2.1-2.5 4.7-3.7 7.7-3.7s6.1 1.3 7.6 3.9c.4.6.8.7 1.2.1 1.2-1.4 2.5-2.4 3.7-3s2.7-.9 4.4-.9c2.7 0 4.9.8 6.4 2.3 1.6 1.5 2.4 3.7 2.4 6.4v17.3c0 .6-.2 1.1-.7 1.5q-.6.6-1.5.6h-3.8q-.9 0-1.5-.6t-.6-1.5V162c0-2.7-1.3-4-3.8-4s-3.2.8-4.5 2.5q-.6.6-.6 1.5v14.5q0 .9-.6 1.5t-1.5.6h-3.8c-.6 0-1.1-.2-1.6-.6q-.6-.6-.6-1.5V162c0-2.7-1.3-4-3.8-4s-3.2.8-4.5 2.5q-.6.6-.6 1.5v14.5c0 .6-.2 1.1-.7 1.5q-.6.6-1.5.6ZM249.1 166.4v-13.2c0-.5.2-1 .7-1.4s1-.6 1.6-.6h4c.6 0 1.1.2 1.6.6.4.4.7.9.7 1.4v13.1c0 1.3.4 2.3 1.3 3.1s2 1.2 3.4 1.2 2.5-.4 3.4-1.2c.8-.8 1.3-1.8 1.3-3.1v-13.1c0-.5.2-1 .7-1.4.4-.4 1-.6 1.6-.6h4c.7 0 1.2.2 1.6.6s.7.9.7 1.4v13.2c0 3.5-1.2 6.4-3.7 8.6-2.4 2.1-5.5 3.2-9.4 3.2s-7-1.1-9.5-3.2c-2.5-2.2-3.7-5-3.7-8.6ZM291 176.7l-10-23.3c-.2-.5-.2-1 .2-1.5.3-.4.8-.7 1.5-.7h5.3c.5 0 1 .1 1.5.4.4.3.7.6.9 1l4.9 12.2c.1.3.4.5.7.5s.5-.1.6-.4l4.2-11.7c.4-1.3 1.3-1.9 3-1.9h2.3c1.5 0 2.5.6 3 1.9l4.2 11.7c0 .3.3.4.6.4s.6-.2.7-.5l4.8-12.1c.4-.9 1.2-1.4 2.4-1.4h4.2c.7 0 1.2.2 1.5.7s.4 1 .2 1.6l-9.9 23.2c-.5 1.1-1.4 1.7-2.8 1.7h-2.6c-1.5 0-2.5-.6-3-1.9l-4.4-12.1c-.1-.4-.3-.5-.6-.5s-.5.2-.6.5l-4.4 12.1c-.2.5-.5 1-1.1 1.3-.5.4-1.1.5-1.8.5h-2.6c-1.4 0-2.3-.6-2.8-1.7ZM355.7 178.4h-3.9c-.6 0-1.1-.2-1.6-.6q-.6-.6-.6-1.5V137c0-.5.2-1 .6-1.4s.9-.6 1.6-.6h3.9c.6 0 1.1.2 1.6.6s.7.9.7 1.4v23.1c0 .4 0 .7.2.7s.5 0 .6-.3l6-8.1q.9-1.2 2.4-1.2h3.9c.8 0 1.4.3 1.7.9q.45.9-.3 1.8l-6.3 8.7c-.3.4-.4.9 0 1.4l7.9 11.9c.4.5.5 1.1.2 1.6s-.8.8-1.6.8h-4.3c-1 0-1.8-.4-2.5-1.2l-6.6-10.6c-.2-.4-.5-.5-.8-.4-.3 0-.5.3-.5.8v9.4c0 .6-.3 1.1-.7 1.5-.5.4-1 .6-1.6.6M386.6 178.4h-3.7c-.6 0-1-.2-1.4-.6q-.6-.6-.6-1.5v-23c0-.5.2-1 .6-1.4s.9-.6 1.4-.6h3.7q.9 0 1.5.6c.4.4.6.9.6 1.4v23q0 .9-.6 1.5t-1.5.6M339.1 178.4h-3.7c-.6 0-1-.2-1.4-.6q-.6-.6-.6-1.5v-23c0-.5.2-1 .6-1.4s.9-.6 1.4-.6h3.7q.9 0 1.5.6c.4.4.6.9.6 1.4v23q0 .9-.6 1.5t-1.5.6" class="cls-1"/><path d="M384.8 154.7c-4.8 0-8.7-3.9-8.7-8.7s3.9-8.7 8.7-8.7 8.7 3.9 8.7 8.7-3.9 8.7-8.7 8.7m0-11.3c-1.4 0-2.5 1.1-2.5 2.5s1.1 2.5 2.5 2.5 2.5-1.1 2.5-2.5-1.1-2.5-2.5-2.5" style="stroke-width:0;fill:url(#_무제_그라디언트_4-12)"/><path d="M337.3 154.7c-4.8 0-8.7-3.9-8.7-8.7s3.9-8.7 8.7-8.7 8.7 3.9 8.7 8.7-3.9 8.7-8.7 8.7m0-11.3c-1.4 0-2.5 1.1-2.5 2.5s1.1 2.5 2.5 2.5 2.5-1.1 2.5-2.5-1.1-2.5-2.5-2.5" style="stroke-width:0;fill:url(#_무제_그라디언트_4-13)"/></svg>